<svg xmlns="http://www.w3.org/2000/svg" viewBox="0 0 192 214"><g id="Livello_2" data-name="Livello 2"><g id="Livello_1-2" data-name="Livello 1"><path d="M0,126V17C3,7.58,9.37,2,19,0H67C82.43,6,85.25,10.18,85.25,27.19V107H192v19c-.49,2.07-1,4.12-1.46,6.2-5,23.2-18.53,40.39-37.68,53.58-2.59,1.79-3.79,3.55-3.7,6.81.21,7.13-.08,14.27-.16,21.41H43c-.08-7.14-.35-14.28-.17-21.41.09-3.23-1-5-3.67-6.82-16.63-11.33-29.23-26-35.5-45.4C2.14,135.68,1.2,130.8,0,126Zm24.87,2.51c.29,1.53.4,2.5.65,3.44,5.18,19.3,17,33.21,34.65,42.25,2.9,1.49,4.2,3.16,3.91,6.5-.33,3.73-.08,7.52-.08,11.3h64c0-3.69.34-7.18-.09-10.58-.51-4,1.46-5.69,4.59-7.63,5.9-3.67,11.83-7.54,16.89-12.26,9.45-8.8,15.16-19.91,17.79-33Zm-3.4-21.86H63.66V22.16H21.47Z"/><path d="M32.38,32.5H52.9V63.84H32.38Z"/></g></g></svg>