<svg xmlns="http://www.w3.org/2000/svg" viewBox="0 0 192 192"><g id="Livello_2" data-name="Livello 2"><g id="Livello_1-2" data-name="Livello 1"><path d="M21,192H0V92c2.63-4.14,5.35-8.23,7.86-12.44,1.17-2,2.74-4.13,2.76-6.23.23-17.12.16-34.25.13-51.38,0-9,4.07-15.54,11.92-19.8C24.08,1.38,25.55.71,27,0H165c12.53,4.93,17.05,14.2,16.42,27.44-.73,15.26-.21,30.58-.11,45.88a9.82,9.82,0,0,0,1.28,5c3,4.67,6.25,9.14,9.41,13.69V192H171V171.19H21ZM170.43,96.31H21.59V149H170.43ZM32.32,21.48V74.75H52.58a8.1,8.1,0,0,0,.57-1.65c.05-5.66.06-11.32.1-17,.08-9.67,3.68-13.34,13.29-13.36q29,0,58,0c10.92,0,14.23,3.38,14.25,14.41,0,5.74,0,11.49,0,17.17h20.92V21.48Z"/></g></g></svg>