<svg xmlns="http://www.w3.org/2000/svg" viewBox="0 0 183.89 201.64"><g id="Livello_2" data-name="Livello 2"><g id="Livello_1-2" data-name="Livello 1"><path d="M128.24,117.39c34.94,17.4,53.71,45.07,55.65,84.25H165.47c-.88-25.07-11-45.47-31.65-60.11-14.06-10-29.94-14.15-47.1-12.93-37.4,2.65-67.64,33.1-68.26,73H0c1.91-39.13,20.71-66.84,55.71-84.19-18.76-14-28.64-32.48-27.84-56C28.46,44,35.46,29.2,48.2,17.33a64,64,0,0,1,91.41,3.89C164.79,49.28,161.21,94.06,128.24,117.39Zm9.56-53a45.86,45.86,0,1,0-46.14,45.66A45.74,45.74,0,0,0,137.8,64.4Z"/></g></g></svg>