<svg xmlns="http://www.w3.org/2000/svg" viewBox="0 0 213.51 213.52"><g id="Livello_2" data-name="Livello 2"><g id="Livello_1-2" data-name="Livello 1"><path d="M64,106.77H97.06c6.5,0,13-.09,19.49,0,7.15.12,11.24,4,11.4,11.1q.24,10.24,0,20.49c-.15,6.48-4.6,11-10.48,11.05-6.06,0-10.51-4.68-10.68-11.44-.09-3.13,0-6.26,0-9.66H64V156c0,11.72-3.09,14.79-14.8,14.8-5.83,0-11.67-.17-17.49.08a10.31,10.31,0,0,0-10.14,10.29c-.13,5.8,3.74,10.64,9.57,10.68,25,.2,49.95.09,75.62.09,0-7.13-.1-14.07,0-21,.09-5,2.51-8.59,7.35-10.17,4.63-1.51,8.83-.34,11.5,3.62a16.08,16.08,0,0,1,2.24,7.91c.32,6.29.1,12.6.1,19.32h63.55V138.76c-10.2,0-20.33.06-30.45,0-5.83,0-10.15-3.2-11.28-8-1.6-6.75,2.85-12.9,9.94-13.12,8.66-.28,17.33-.11,26-.12h5.84V54H128V70.81c0,4.5.06,9,0,13.5-.15,7.36-4.26,11.75-10.78,11.64-6.17-.1-10.35-4.64-10.42-11.58-.09-8.5,0-17,0-25.49V53.52c-6.48,0-12.43.06-18.38,0a21.33,21.33,0,0,1-6.4-.79c-4.59-1.51-7-5-7.16-9.78a10,10,0,0,1,7.35-10.13,29.1,29.1,0,0,1,7.41-.73q54.48-.07,109,0C210,32,213.5,35.46,213.5,46.88q0,76,0,152c0,11.11-3.55,14.66-14.65,14.66q-81.73,0-163.47,0C13.21,213.5,0,200.25,0,178Q0,106.76,0,35.52C0,13.26,13.2.06,35.39,0c5.16,0,10.33,0,15.49,0C60.2.1,64,3.81,64,13.06q.06,43.48,0,87ZM42.49,149.19V21.52H36.88c-12.55,0-15.37,2.74-15.37,15.1V150.26Z"/></g></g></svg>